<?xml version="1.0" encoding="UTF-8"?>
<svg width="25px" height="25px" viewBox="0 0 25 25" version="1.1" xmlns="http://www.w3.org/2000/svg" xmlns:xlink="http://www.w3.org/1999/xlink">
    <!-- Generator: Sketch 41.1 (35376) - http://www.bohemiancoding.com/sketch -->
    <title>anouncement</title>
    <desc>Created with Sketch.</desc>
    <defs></defs>
    <g id="Symbols" stroke="none" stroke-width="1" fill="none" fill-rule="evenodd" stroke-linecap="round" stroke-linejoin="round">
        <g id="SubSub-Patient-V5" transform="translate(-27.000000, -638.000000)" stroke="#FFFFFF">
            <g id="anouncement" transform="translate(28.000000, 639.000000)">
                <path d="M18.2846928,4.71532466 C22.1296928,8.56032466 23.9996928,12.9233247 22.4616928,14.4613247 C20.9236928,15.9993247 16.5596928,14.1293247 12.7156928,10.2843247 C8.87069284,6.44032466 7.00069284,2.07632466 8.53869284,0.538324662 C10.0766928,-0.999675338 14.4396928,0.870324662 18.2846928,4.71532466 L18.2846928,4.71532466 Z" id="Stroke-399"></path>
                <path d="M7.99999284,3.00002466 L1.32199284,19.2180247 C0.804992841,18.9720247 0.363992841,18.9230247 0.143992841,19.1440247 C-0.267007159,19.5540247 0.231992841,20.7170247 1.25699284,21.7430247 C2.28299284,22.7680247 3.44599284,23.2660247 3.85599284,22.8560247 C4.07899284,22.6340247 4.02599284,22.1860247 3.77399284,21.6610247 L19.9999928,15.0000247" id="Stroke-401"></path>
                <path d="M8.49999284,20.0000247 L9.57899284,22.1590247 C9.81599284,22.6310247 10.3789928,22.8370247 10.8649928,22.6290247 L16.0269928,20.4170247 C16.5549928,20.1910247 16.7839928,19.5670247 16.5269928,19.0540247 L15.4999928,17.0000247" id="Stroke-403"></path>
            </g>
        </g>
    </g>
</svg>