<?xml version="1.0" encoding="UTF-8"?>
<svg width="25px" height="16px" viewBox="0 0 25 16" version="1.1" xmlns="http://www.w3.org/2000/svg" xmlns:xlink="http://www.w3.org/1999/xlink">
    <!-- Generator: Sketch 41.1 (35376) - http://www.bohemiancoding.com/sketch -->
    <title>details</title>
    <desc>Created with Sketch.</desc>
    <defs></defs>
    <g id="Symbols" stroke="none" stroke-width="1" fill="none" fill-rule="evenodd" stroke-linecap="round" stroke-linejoin="round">
        <g id="SubSub-Patient-V5" transform="translate(-28.000000, -87.000000)" stroke="#FFFFFF">
            <g id="details" transform="translate(29.000000, 87.500000)">
                <path d="M21,15 L2,15 C0.895,15 0,14.105 0,13 L0,2 C0,0.895 0.895,0 2,0 L21,0 C22.105,0 23,0.895 23,2 L23,13 C23,14.105 22.105,15 21,15 L21,15 Z" id="Stroke-441"></path>
                <path d="M3,10 L7,10" id="Stroke-443"></path>
                <path d="M3,12 L12,12" id="Stroke-445"></path>
                <path d="M17,10.5 C17,10.057 17.195,9.664 17.5,9.389 C17.234,9.15 16.886,9 16.5,9 C15.672,9 15,9.672 15,10.5 C15,11.328 15.672,12 16.5,12 C16.886,12 17.234,11.85 17.5,11.611 C17.195,11.336 17,10.943 17,10.5 L17,10.5 Z" id="Stroke-447"></path>
                <path d="M3,7 L5,7" id="Stroke-449"></path>
                <path d="M7,7 L9,7" id="Stroke-451"></path>
                <path d="M11,7 L13,7" id="Stroke-453"></path>
                <path d="M20,10.5 C20,11.328 19.328,12 18.5,12 C17.672,12 17,11.328 17,10.5 C17,9.672 17.672,9 18.5,9 C19.328,9 20,9.672 20,10.5 L20,10.5 Z" id="Stroke-455"></path>
            </g>
        </g>
    </g>
</svg>