<?xml version="1.0" encoding="UTF-8"?>
<svg width="25px" height="25px" viewBox="0 0 25 25" version="1.1" xmlns="http://www.w3.org/2000/svg" xmlns:xlink="http://www.w3.org/1999/xlink">
    <!-- Generator: Sketch 41.1 (35376) - http://www.bohemiancoding.com/sketch -->
    <title>feedback</title>
    <desc>Created with Sketch.</desc>
    <defs></defs>
    <g id="Symbols" stroke="none" stroke-width="1" fill="none" fill-rule="evenodd" stroke-linecap="round" stroke-linejoin="round">
        <g id="SubSub-Patient-V5" transform="translate(-27.000000, -718.000000)" stroke="#FFFFFF">
            <g id="feedback" transform="translate(28.000000, 719.000000)">
                <path d="M9.0001,3 L9.0001,2 C9.0001,0.895 9.8951,0 11.0001,0 L21.0001,0 C22.1051,0 23.0001,0.895 23.0001,2 L23.0001,7 C23.0001,8.105 22.1051,9 21.0001,9 L19.5001,9 L16.0001,13 L16.5001,9 L16.0001,9" id="Stroke-6"></path>
                <path d="M14.965,19.1084 L11.739,18.3014 L11.372,16.8314 C12.27,16.0254 12.871,14.8134 12.967,13.6064 L13.005,13.6064 C13.4,13.6064 13.733,13.3124 13.781,12.9204 L13.977,11.3554 C14.035,10.8914 13.675,10.4834 13.209,10.4774 L13.304,8.5194 L13.696,8.1284 C14.202,7.5894 14.202,6.9454 13.696,6.1714 C13.187,5.3944 12.3,4.9974 11.059,4.9974 C10.403,4.9974 9.263,5.0324 8.217,5.7804 C5.064,5.8114 4.696,7.1254 4.696,8.5194 C4.696,9.0104 4.881,10.4754 4.881,10.4754 L4.8,10.4754 C4.329,10.4754 3.965,10.8884 4.023,11.3554 L4.219,12.9204 C4.268,13.3124 4.601,13.6064 4.995,13.6064 L5.123,13.6064 C5.216,14.7804 5.786,15.9624 6.645,16.7674 L6.261,18.3014 L3.035,19.1084 C1.251,19.5544 0,21.1574 0,22.9954 L0,22.9974 L18,22.9974 L18,22.9954 C18,21.1574 16.749,19.5544 14.965,19.1084 L14.965,19.1084 Z" id="Stroke-8"></path>
            </g>
        </g>
    </g>
</svg>