<?xml version="1.0" encoding="UTF-8"?>
<svg width="25px" height="16px" viewBox="0 0 25 16" version="1.1" xmlns="http://www.w3.org/2000/svg" xmlns:xlink="http://www.w3.org/1999/xlink">
    <!-- Generator: Sketch 41.1 (35376) - http://www.bohemiancoding.com/sketch -->
    <title>handshake</title>
    <desc>Created with Sketch.</desc>
    <defs></defs>
    <g id="Symbols" stroke="none" stroke-width="1" fill="none" fill-rule="evenodd" stroke-linecap="round" stroke-linejoin="round">
        <g id="SubSub-Rit-V5" transform="translate(-28.000000, -167.000000)" stroke="#FFFFFF">
            <g id="handshake" transform="translate(29.000000, 168.000000)">
                <path d="M3.4991,8.0009 C3.8601,8.3059 4.9751,9.5599 5.5001,9.9999 C7.3981,11.5889 9.6131,13.2459 10.0001,13.4999 C10.3281,13.7159 11.0271,13.9999 11.5001,13.9999 C11.9531,13.9999 12.3541,13.9029 12.5001,13.4999 C13.2381,14.1749 14.4111,13.4679 14.5001,12.4999 C15.1041,13.0629 16.6121,12.5349 16.5001,11.4999 C17.2161,11.9939 18.5361,11.1139 18.0001,9.9999 C17.3291,8.6039 13.5311,6.0309 12.0001,4.4999 C11.1281,4.8149 11.1611,4.9339 10.5001,4.9999 C10.0171,5.7209 9.2301,6.4049 8.0001,5.9999 C6.7701,5.5949 7.8451,3.7089 8.7091,2.8449 C10.4251,1.1289 11.4871,0.5999 13.5001,1.4999 C15.5121,2.4009 17.5001,3.0929 17.5001,3.0929" id="Stroke-334"></path>
                <path d="M9.5,2 L5,2" id="Stroke-336"></path>
                <path d="M18.0381,9.9824 L19.5001,9.0004" id="Stroke-338"></path>
                <path d="M16.5,11.5 C15.985,11.094 13.5,8.5 13.5,8.5" id="Stroke-340"></path>
                <path d="M14.5,12.5 C13.852,11.982 12.268,10.292 12,10" id="Stroke-342"></path>
                <path d="M12.5,13.5 C11.833,12.938 10.542,11.58 10,11" id="Stroke-344"></path>
                <path d="M0,9 L3,9 C3,9 4.775,3.572 5,1 C4.208,0.25 0,0 0,0 L0,9 L0,9 Z" id="Stroke-346"></path>
                <path d="M17.0178,2 C17.6888,3.08 19.6428,8.705 19.9998,10 L22.9998,10 L22.9998,1 C19.1408,1 17.0178,2 17.0178,2 L17.0178,2 Z" id="Stroke-348"></path>
            </g>
        </g>
    </g>
</svg>