<?xml version="1.0" encoding="UTF-8"?>
<svg width="23px" height="24px" viewBox="0 0 23 24" version="1.1" xmlns="http://www.w3.org/2000/svg" xmlns:xlink="http://www.w3.org/1999/xlink">
    <!-- Generator: Sketch 41.1 (35376) - http://www.bohemiancoding.com/sketch -->
    <title>Group 2</title>
    <desc>Created with Sketch.</desc>
    <defs></defs>
    <g id="Symbols" stroke="none" stroke-width="1" fill="none" fill-rule="evenodd">
        <g id="Hoofdmenu-Ritten" transform="translate(-150.000000, -18.000000)" fill="#B8C0C8">
            <g id="Group-2" transform="translate(150.000000, 18.000000)">
                <path d="M1.5,1 C1.224,1 1,1.23 1,1.5 L1,22.5 C1,22.78 1.224,23 1.5,23 L5.5,23 C5.776,23 6,22.78 6,22.5 L6,1.5 C6,1.23 5.776,1 5.5,1 L1.5,1 L1.5,1 Z M5.5,24 L1.5,24 C0.673,24 0,23.33 0,22.5 L0,1.5 C0,0.67 0.673,0 1.5,0 L5.5,0 C6.327,0 7,0.67 7,1.5 L7,22.5 C7,23.33 6.327,24 5.5,24 L5.5,24 Z" id="Fill-3533"></path>
                <path d="M3.5,19 C3.224,19 3,19.23 3,19.5 C3,19.78 3.224,20 3.5,20 C3.776,20 4,19.78 4,19.5 C4,19.23 3.776,19 3.5,19 L3.5,19 Z M3.5,21 C2.673,21 2,20.33 2,19.5 C2,18.67 2.673,18 3.5,18 C4.327,18 5,18.67 5,19.5 C5,20.33 4.327,21 3.5,21 L3.5,21 Z" id="Fill-3534"></path>
                <path d="M4.5,7 L2.5,7 C2.224,7 2,6.78 2,6.5 C2,6.22 2.224,6 2.5,6 L4.5,6 C4.776,6 5,6.22 5,6.5 C5,6.78 4.776,7 4.5,7" id="Fill-3535"></path>
                <path d="M4.5,5 L2.5,5 C2.224,5 2,4.78 2,4.5 C2,4.22 2.224,4 2.5,4 L4.5,4 C4.776,4 5,4.22 5,4.5 C5,4.78 4.776,5 4.5,5" id="Fill-3536"></path>
                <path d="M4.5,3 L2.5,3 C2.224,3 2,2.78 2,2.5 C2,2.22 2.224,2 2.5,2 L4.5,2 C4.776,2 5,2.22 5,2.5 C5,2.78 4.776,3 4.5,3" id="Fill-3537"></path>
                <path d="M9.5,1 C9.224,1 9,1.23 9,1.5 L9,22.5 C9,22.78 9.224,23 9.5,23 L13.5,23 C13.776,23 14,22.78 14,22.5 L14,1.5 C14,1.23 13.776,1 13.5,1 L9.5,1 L9.5,1 Z M13.5,24 L9.5,24 C8.673,24 8,23.33 8,22.5 L8,1.5 C8,0.67 8.673,0 9.5,0 L13.5,0 C14.327,0 15,0.67 15,1.5 L15,22.5 C15,23.33 14.327,24 13.5,24 L13.5,24 Z" id="Fill-3538"></path>
                <path d="M11.5,19 C11.224,19 11,19.23 11,19.5 C11,19.78 11.224,20 11.5,20 C11.776,20 12,19.78 12,19.5 C12,19.23 11.776,19 11.5,19 L11.5,19 Z M11.5,21 C10.673,21 10,20.33 10,19.5 C10,18.67 10.673,18 11.5,18 C12.327,18 13,18.67 13,19.5 C13,20.33 12.327,21 11.5,21 L11.5,21 Z" id="Fill-3539"></path>
                <path d="M12.5,7 L10.5,7 C10.224,7 10,6.78 10,6.5 C10,6.22 10.224,6 10.5,6 L12.5,6 C12.776,6 13,6.22 13,6.5 C13,6.78 12.776,7 12.5,7" id="Fill-3540"></path>
                <path d="M12.5,5 L10.5,5 C10.224,5 10,4.78 10,4.5 C10,4.22 10.224,4 10.5,4 L12.5,4 C12.776,4 13,4.22 13,4.5 C13,4.78 12.776,5 12.5,5" id="Fill-3541"></path>
                <path d="M12.5,3 L10.5,3 C10.224,3 10,2.78 10,2.5 C10,2.22 10.224,2 10.5,2 L12.5,2 C12.776,2 13,2.22 13,2.5 C13,2.78 12.776,3 12.5,3" id="Fill-3542"></path>
                <path d="M17.5,1 C17.224,1 17,1.23 17,1.5 L17,22.5 C17,22.78 17.224,23 17.5,23 L21.5,23 C21.776,23 22,22.78 22,22.5 L22,1.5 C22,1.23 21.776,1 21.5,1 L17.5,1 L17.5,1 Z M21.5,24 L17.5,24 C16.673,24 16,23.33 16,22.5 L16,1.5 C16,0.67 16.673,0 17.5,0 L21.5,0 C22.327,0 23,0.67 23,1.5 L23,22.5 C23,23.33 22.327,24 21.5,24 L21.5,24 Z" id="Fill-3543"></path>
                <path d="M19.5,19 C19.224,19 19,19.23 19,19.5 C19,19.78 19.224,20 19.5,20 C19.776,20 20,19.78 20,19.5 C20,19.23 19.776,19 19.5,19 L19.5,19 Z M19.5,21 C18.673,21 18,20.33 18,19.5 C18,18.67 18.673,18 19.5,18 C20.327,18 21,18.67 21,19.5 C21,20.33 20.327,21 19.5,21 L19.5,21 Z" id="Fill-3544"></path>
                <path d="M20.5,7 L18.5,7 C18.224,7 18,6.78 18,6.5 C18,6.22 18.224,6 18.5,6 L20.5,6 C20.776,6 21,6.22 21,6.5 C21,6.78 20.776,7 20.5,7" id="Fill-3545"></path>
                <path d="M20.5,5 L18.5,5 C18.224,5 18,4.78 18,4.5 C18,4.22 18.224,4 18.5,4 L20.5,4 C20.776,4 21,4.22 21,4.5 C21,4.78 20.776,5 20.5,5" id="Fill-3546"></path>
                <path d="M20.5,3 L18.5,3 C18.224,3 18,2.78 18,2.5 C18,2.22 18.224,2 18.5,2 L20.5,2 C20.776,2 21,2.22 21,2.5 C21,2.78 20.776,3 20.5,3" id="Fill-3547"></path>
            </g>
        </g>
    </g>
</svg>