<?xml version="1.0" encoding="UTF-8"?>
<svg width="19px" height="24px" viewBox="0 0 19 24" version="1.1" xmlns="http://www.w3.org/2000/svg" xmlns:xlink="http://www.w3.org/1999/xlink">
    <!-- Generator: Sketch 41.1 (35376) - http://www.bohemiancoding.com/sketch -->
    <title>Bel</title>
    <desc>Created with Sketch.</desc>
    <defs></defs>
    <g id="Symbols" stroke="none" stroke-width="1" fill="none" fill-rule="evenodd">
        <g id="Hoofdmenu-Ritten" transform="translate(-203.000000, -18.000000)" fill="#B8C0C8">
            <g id="Bel" transform="translate(203.000000, 18.000000)">
                <path d="M7.51140495,3.29 C7.41640495,3.29 7.32240495,3.26 7.24140495,3.21 C7.11940495,3.13 7.03740495,3 7.01640495,2.86 C6.99740495,2.73 6.98240495,2.61 6.98240495,2.5 C6.98240495,1.12 8.10440495,0 9.48240495,0 C10.860405,0 11.982405,1.12 11.982405,2.5 C11.982405,2.61 11.967405,2.73 11.951405,2.84 C11.930405,2.98 11.846405,3.12 11.725405,3.2 C11.603405,3.27 11.452405,3.31 11.313405,3.27 C10.109405,2.91 8.85540495,2.91 7.65140495,3.27 C7.60640495,3.28 7.55840495,3.29 7.51140495,3.29 Z M9.48240495,2 C9.96940495,2 10.457405,2.05 10.939405,2.15 C10.780405,1.49 10.187405,1 9.48240495,1 C8.77740495,1 8.18440495,1.49 8.02540495,2.15 C8.50740495,2.05 8.99540495,2 9.48240495,2 Z" id="Fill-1795"></path>
                <path d="M16.998405,21 L1.98240495,21 C1.30440495,21 0.680404954,20.66 0.314404954,20.09 C-0.0495950457,19.53 -0.100595046,18.82 0.177404954,18.21 C0.334404954,17.86 0.529404954,17.48 0.744404954,17.06 C1.73040495,15.12 3.07940495,12.46 2.97640495,9.15 C2.91140495,7.03 3.78540495,5.02 5.37440495,3.63 C6.84140495,2.34 8.75740495,1.78 10.635405,2.09 C13.883405,2.63 15.982405,5.54 15.982405,9.5 C15.982405,12.64 17.279405,15.18 18.226405,17.04 C18.445405,17.47 18.645405,17.86 18.803405,18.21 C19.082405,18.82 19.031405,19.53 18.667405,20.09 C18.300405,20.66 17.676405,21 16.998405,21 Z M9.58940495,3.01 C8.29740495,3.01 7.06040495,3.48 6.03240495,4.38 C4.69040495,5.55 3.92140495,7.32 3.97640495,9.12 C4.08640495,12.69 2.61240495,15.59 1.63640495,17.51 C1.42840495,17.92 1.23840495,18.29 1.08740495,18.62 C0.948404954,18.93 0.972404954,19.27 1.15440495,19.55 C1.33940495,19.84 1.64140495,20 1.98240495,20 L16.998405,20 C17.340405,20 17.642405,19.84 17.826405,19.55 C18.008405,19.27 18.032405,18.93 17.893405,18.62 C17.740405,18.29 17.547405,17.91 17.335405,17.49 C16.342405,15.55 14.982405,12.88 14.982405,9.5 C14.982405,6.05 13.211405,3.53 10.472405,3.08 C10.176405,3.03 9.88140495,3.01 9.58940495,3.01 Z" id="Fill-1796"></path>
                <path d="M2.81540495,19 C2.73940495,19 2.66340495,18.98 2.59140495,18.95 C2.34440495,18.82 2.24440495,18.52 2.36840495,18.28 L2.52740495,17.96 C3.50540495,16.04 4.98240495,13.13 4.98240495,9.5 C4.98240495,6.96 6.16140495,4 9.48240495,4 C9.75840495,4 9.98240495,4.22 9.98240495,4.5 C9.98240495,4.78 9.75840495,5 9.48240495,5 C6.23440495,5 5.98240495,8.44 5.98240495,9.5 C5.98240495,13.37 4.44040495,16.41 3.41940495,18.41 L3.26240495,18.72 C3.17440495,18.9 2.99840495,19 2.81540495,19" id="Fill-1797"></path>
                <path d="M9.48240495,24 C7.55240495,24 5.98240495,22.43 5.98240495,20.5 C5.98240495,20.22 6.20640495,20 6.48240495,20 C6.75840495,20 6.98240495,20.22 6.98240495,20.5 C6.98240495,21.88 8.10440495,23 9.48240495,23 C10.860405,23 11.982405,21.88 11.982405,20.5 C11.982405,20.22 12.206405,20 12.482405,20 C12.758405,20 12.982405,20.22 12.982405,20.5 C12.982405,22.43 11.412405,24 9.48240495,24" id="Fill-1798"></path>
            </g>
        </g>
    </g>
</svg>