<?xml version="1.0" encoding="UTF-8"?>
<svg width="32px" height="24px" viewBox="0 0 32 24" version="1.1" xmlns="http://www.w3.org/2000/svg" xmlns:xlink="http://www.w3.org/1999/xlink">
    <!-- Generator: Sketch 41.1 (35376) - http://www.bohemiancoding.com/sketch -->
    <title>Ambulance</title>
    <desc>Created with Sketch.</desc>
    <defs></defs>
    <g id="Symbols" stroke="none" stroke-width="1" fill="none" fill-rule="evenodd">
        <g id="Hoofdmenu-Ritten" transform="translate(-88.000000, -18.000000)" fill="#283F57">
            <path d="M103.999771,22.5714286 L117.142629,22.5714286 C117.230629,22.5714286 117.318629,22.5931429 117.398629,22.632 L119.684343,23.7748571 C119.877486,23.872 119.999771,24.0685714 119.999771,24.2857143 L119.999771,34.5714283 L119.999771,36.8571429 C119.999771,37.1725714 119.743771,37.4285714 119.428343,37.4285714 L118.285486,37.4285714 C117.970057,37.4285714 117.714057,37.1725714 117.714057,36.8571429 C117.714057,36.5417143 117.970057,36.2857143 118.285486,36.2857143 L118.856914,36.2857143 L118.856914,35.1428571 L96.5712,35.1428571 C96.4832,35.1428571 96.3952,35.1211429 96.3152,35.0822857 L94.0294857,33.9394286 C93.7472,33.7977143 93.6340571,33.4548571 93.7746286,33.1725714 C93.9174857,32.8914286 94.2592,32.7771429 94.5414857,32.9177143 L96.7060571,34 L118.856914,34 L118.856914,24.6388571 L117.007771,23.7142857 L94.5597714,23.7142857 L90.2854857,29.0582857 L90.2854857,34.5714286 C90.2854857,34.7291429 90.2214857,34.872 90.1180571,34.9754286 C90.0146286,35.0788571 89.8717714,35.1428571 89.7140571,35.1428571 L89.1426286,35.1428571 L89.1426286,36.2857143 L89.7140571,36.2857143 C90.0294857,36.2857143 90.2854857,36.5417143 90.2854857,36.8571429 C90.2854857,37.1725714 90.0294857,37.4285714 89.7140571,37.4285714 L88.5712,37.4285714 C88.2557714,37.4285714 87.9997714,37.1725714 87.9997714,36.8571429 L87.9997714,34.5714286 C87.9997714,34.256 88.2557714,34 88.5712,34 L89.1426286,34 L89.1426286,28.8571429 C89.1426286,28.728 89.1872,28.6011429 89.2672,28.5005714 L93.8386286,22.7851429 C93.9472,22.6502857 94.1117714,22.5714286 94.2854857,22.5714286 L99.4283429,22.5714286 L99.4283429,19.7142857 C99.4283429,18.7691429 100.197486,18 101.142629,18 L102.285486,18 C103.230629,18 103.999771,18.7691429 103.999771,19.7142857 L103.999771,22.5714286 Z M102.856914,22.5714286 L100.5712,22.5714286 L100.5712,19.7142857 C100.5712,19.4 100.828343,19.1428571 101.142629,19.1428571 L102.285486,19.1428571 C102.599771,19.1428571 102.856914,19.4 102.856914,19.7142857 L102.856914,22.5714286 Z M113.142629,29.4285714 L113.142629,31.1428571 C113.142629,31.4582857 113.398629,31.7142857 113.714057,31.7142857 C114.029486,31.7142857 114.285486,31.4582857 114.285486,31.1428571 L114.285486,29.4285714 L115.656914,30.4571429 C115.759771,30.5348571 115.879771,30.5714286 115.999771,30.5714286 C116.172343,30.5714286 116.344914,30.4925714 116.456914,30.3428571 C116.645486,30.0902857 116.594057,29.7325714 116.342629,29.5428571 L114.666438,28.2857143 L116.342629,27.0285714 C116.594057,26.8388571 116.645486,26.4811429 116.456914,26.2285714 C116.266057,25.9748571 115.908343,25.9257143 115.656914,26.1142857 L114.285486,27.1428571 L114.285486,25.4285714 C114.285486,25.1131429 114.029486,24.8571429 113.714057,24.8571429 C113.398629,24.8571429 113.142629,25.1131429 113.142629,25.4285714 L113.142629,27.1428571 L111.7712,26.1142857 C111.519771,25.9257143 111.162057,25.976 110.9712,26.2285714 C110.782629,26.4811429 110.832914,26.8388571 111.085486,27.0285714 L112.761676,28.2857143 L111.085486,29.5428571 C110.832914,29.7325714 110.782629,30.0902857 110.9712,30.3428571 C111.0832,30.4925714 111.255771,30.5714286 111.428343,30.5714286 C111.5472,30.5714286 111.668343,30.5348571 111.7712,30.4571429 L113.142629,29.4285714 Z M97.7144,30.5714286 L93.1429714,30.5714286 C92.9349714,30.5714286 92.7429714,30.4582857 92.6424,30.2765714 C92.5418286,30.0948571 92.5475429,29.8731429 92.6584,29.6971429 L95.5155429,25.1257143 C95.6195429,24.9588571 95.8024,24.8571429 96.0001143,24.8571429 L97.7144,24.8571429 C98.0298286,24.8571429 98.2858286,25.1131429 98.2858286,25.4285714 L98.2858286,30 C98.2858286,30.3154286 98.0298286,30.5714286 97.7144,30.5714286 Z M94.1738286,29.4285714 L97.1429714,29.4285714 L97.1429714,26 L96.3166857,26 L94.1738286,29.4285714 Z M110.285486,37.4285714 L97.7140571,37.4285714 C97.3986286,37.4285714 97.1426286,37.1725714 97.1426286,36.8571429 C97.1426286,36.5417143 97.3986286,36.2857143 97.7140571,36.2857143 L110.285486,36.2857143 C110.600914,36.2857143 110.856914,36.5417143 110.856914,36.8571429 C110.856914,37.1725714 110.600914,37.4285714 110.285486,37.4285714 Z M106.856686,30.5714286 L101.1424,30.5714286 C100.826971,30.5714286 100.570971,30.3154286 100.570971,30 L100.570971,25.4285714 C100.570971,25.1131429 100.826971,24.8571429 101.1424,24.8571429 L106.856686,24.8571429 C107.173257,24.8571429 107.428114,25.1131429 107.428114,25.4285714 L107.428114,30 C107.428114,30.3154286 107.173257,30.5714286 106.856686,30.5714286 Z M101.713829,29.4285714 L106.285257,29.4285714 L106.285257,26 L101.713829,26 L101.713829,29.4285714 Z M114.856914,42 C113.280914,42 111.999771,40.7188571 111.999771,39.1428571 C111.999771,37.5668571 113.280914,36.2857143 114.856914,36.2857143 C116.432914,36.2857143 117.714057,37.5668571 117.714057,39.1428571 C117.714057,40.7188571 116.432914,42 114.856914,42 Z M114.856914,37.4285714 C113.911771,37.4285714 113.142629,38.1977143 113.142629,39.1428571 C113.142629,40.088 113.911771,40.8571429 114.856914,40.8571429 C115.802057,40.8571429 116.5712,40.088 116.5712,39.1428571 C116.5712,38.1977143 115.802057,37.4285714 114.856914,37.4285714 Z M93.1426286,42 C91.5666286,42 90.2854857,40.7188571 90.2854857,39.1428571 C90.2854857,37.5668571 91.5666286,36.2857143 93.1426286,36.2857143 C94.7186286,36.2857143 95.9997714,37.5668571 95.9997714,39.1428571 C95.9997714,40.7188571 94.7186286,42 93.1426286,42 Z M93.1426286,37.4285714 C92.1974857,37.4285714 91.4283429,38.1977143 91.4283429,39.1428571 C91.4283429,40.088 92.1974857,40.8571429 93.1426286,40.8571429 C94.0877714,40.8571429 94.8569143,40.088 94.8569143,39.1428571 C94.8569143,38.1977143 94.0877714,37.4285714 93.1426286,37.4285714 Z" id="Ambulance" transform="translate(103.999771, 30.000000) scale(-1, 1) translate(-103.999771, -30.000000) "></path>
        </g>
    </g>
</svg>