<?xml version="1.0" encoding="UTF-8"?>
<svg width="22px" height="25px" viewBox="0 0 22 25" version="1.1" xmlns="http://www.w3.org/2000/svg" xmlns:xlink="http://www.w3.org/1999/xlink">
    <!-- Generator: Sketch 41.1 (35376) - http://www.bohemiancoding.com/sketch -->
    <title>incident</title>
    <desc>Created with Sketch.</desc>
    <defs></defs>
    <g id="Symbols" stroke="none" stroke-width="1" fill="none" fill-rule="evenodd" stroke-linecap="round" stroke-linejoin="round">
        <g id="SubSub-Patient-V5" transform="translate(-29.000000, -158.000000)" stroke="#FFFFFF">
            <g id="incident" transform="translate(30.000000, 158.000000)">
                <polygon id="Stroke-488" points="19.1666667 10 17.5 8.75 15.8333333 10 16.25 7.91666667 15 6.66666667 16.6666667 6.66666667 17.5 5 18.3333333 6.66666667 20 6.66666667 18.75 7.91666667"></polygon>
                <polygon id="Stroke-490" points="11 6 9 4.5 7 6 7.5 3.5 6 2 8 2 9 0 10 2 12 2 10.5 3.5"></polygon>
                <polygon id="Stroke-491" points="5.83333333 16 3.5 14.25 1.16666667 16 1.75 13.0833333 0 11.3333333 2.33333333 11.3333333 3.5 9 4.66666667 11.3333333 7 11.3333333 5.25 13.0833333"></polygon>
                <polygon id="Stroke-492" points="14.5 24 11.5 21.75 8.5 24 9.25 20.25 7 18 10 18 11.5 15 13 18 16 18 13.75 20.25"></polygon>
            </g>
        </g>
    </g>
</svg>