<?xml version="1.0" encoding="UTF-8"?>
<svg width="13px" height="24px" viewBox="0 0 13 24" version="1.1" xmlns="http://www.w3.org/2000/svg" xmlns:xlink="http://www.w3.org/1999/xlink">
    <!-- Generator: Sketch 41.1 (35376) - http://www.bohemiancoding.com/sketch -->
    <title>Group 59</title>
    <desc>Created with Sketch.</desc>
    <defs></defs>
    <g id="Symbols" stroke="none" stroke-width="1" fill="none" fill-rule="evenodd" stroke-linecap="round" stroke-linejoin="round">
        <g id="SubSub-Rit-V5" transform="translate(-33.000000, -78.000000)" stroke="#FFFFFF">
            <g id="Group-59" transform="translate(33.000000, 78.000000)">
                <path d="M9.5,6.5 C9.5,8.157 8.157,9.5 6.5,9.5 C4.843,9.5 3.5,8.157 3.5,6.5 C3.5,4.843 4.843,3.5 6.5,3.5 C8.157,3.5 9.5,4.843 9.5,6.5 L9.5,6.5 Z" id="Stroke-55"></path>
                <path d="M12.5,6.5 C12.5,9.814 6.5,23.5 6.5,23.5 C6.5,23.5 0.5,9.814 0.5,6.5 C0.5,3.186 3.186,0.5 6.5,0.5 C9.814,0.5 12.5,3.186 12.5,6.5 L12.5,6.5 Z" id="Stroke-57"></path>
            </g>
        </g>
    </g>
</svg>