<?xml version="1.0" encoding="UTF-8"?>
<svg width="25px" height="24px" viewBox="0 0 25 24" version="1.1" xmlns="http://www.w3.org/2000/svg" xmlns:xlink="http://www.w3.org/1999/xlink">
    <!-- Generator: Sketch 41.1 (35376) - http://www.bohemiancoding.com/sketch -->
    <title>notes</title>
    <desc>Created with Sketch.</desc>
    <defs></defs>
    <g id="Symbols" stroke="none" stroke-width="1" fill="none" fill-rule="evenodd" stroke-linecap="round" stroke-linejoin="round">
        <g id="SubSub-Rit-V5" transform="translate(-28.000000, -479.000000)" stroke="#FFFFFF">
            <g id="notes" transform="translate(29.000000, 480.000000)">
                <polyline id="Stroke-21" points="15.857 4.1429 3 1.9999 0 18.9999 18 21.9999 21 4.9999"></polyline>
                <polyline id="Stroke-22" points="4.8817 19.8137 4.9997 21.9997 12.7997 21.1337"></polyline>
                <path d="M17.6363,2.3636 L9.3333,3.0556" id="Stroke-23"></path>
                <polyline id="Stroke-24" points="18.2599 20.5267 22.9999 19.9997 22.1049 3.8947"></polyline>
                <path d="M8.9999,14 L9.9999,10 L19.3789,0.621 C19.7769,0.223 20.3159,0 20.8779,0 L20.8799,0 C22.0509,0 22.9999,0.949 22.9999,2.12 L22.9999,2.122 C22.9999,2.684 22.7769,3.223 22.3789,3.621 L12.9999,13 L8.9999,14 L8.9999,14 Z" id="Stroke-25"></path>
                <path d="M17.9999,2 L20.9999,5" id="Stroke-27"></path>
                <path d="M9.9999,10 C9.9999,10 11.0309,10.031 11.9999,11 C12.9689,11.969 12.9999,13 12.9999,13" id="Stroke-29"></path>
            </g>
        </g>
    </g>
</svg>