<?xml version="1.0" encoding="utf-8"?>
<!-- Generator: Adobe Illustrator 15.0.0, SVG Export Plug-In . SVG Version: 6.00 Build 0)  -->
<!DOCTYPE svg PUBLIC "-//W3C//DTD SVG 1.1//EN" "http://www.w3.org/Graphics/SVG/1.1/DTD/svg11.dtd">
<svg version="1.1" id="Layer_1" xmlns="http://www.w3.org/2000/svg" xmlns:xlink="http://www.w3.org/1999/xlink" x="0px" y="0px"
	 width="161.271px" height="103.673px" viewBox="0 0 161.271 103.673" enable-background="new 0 0 161.271 103.673"
	 xml:space="preserve">
<g>
	<g>
		<path fill-rule="evenodd" clip-rule="evenodd" fill="#999C9E" d="M149.753,0H11.521C5.157,0,0,5.157,0,11.519v80.636
			c0,6.361,5.157,11.519,11.521,11.519h138.232c6.361,0,11.519-5.157,11.519-11.519V11.519C161.271,5.157,156.114,0,149.753,0z
			 M46.078,24.057c6.958,0,12.6,7.414,12.6,16.56s-5.642,16.56-12.6,16.56s-12.599-7.414-12.599-16.56S39.119,24.057,46.078,24.057z
			 M21.119,76.675c0,0,1.37-10.953,4.471-13.021c3.102-2.068,12.04-3.439,12.04-3.439s5.792,6.191,8.255,6.191
			c2.46,0,8.256-6.191,8.256-6.191s8.937,1.371,12.039,3.439c3.649,2.434,4.557,13.021,4.557,13.021H21.119z M138.233,71.214H86.396
			v-5.76h51.837V71.214z M138.233,59.697H86.396v-5.761h51.837V59.697z M138.233,48.176H86.396v-5.76h51.837V48.176z
			 M138.233,36.657H86.396v-5.76h51.837V36.657z"/>
	</g>
</g>
</svg>
