<?xml version="1.0" encoding="UTF-8"?>
<svg width="21px" height="25px" viewBox="0 0 21 25" version="1.1" xmlns="http://www.w3.org/2000/svg" xmlns:xlink="http://www.w3.org/1999/xlink">
    <!-- Generator: Sketch 41.1 (35376) - http://www.bohemiancoding.com/sketch -->
    <title>primary</title>
    <desc>Created with Sketch.</desc>
    <defs></defs>
    <g id="Symbols" stroke="none" stroke-width="1" fill="none" fill-rule="evenodd" stroke-linecap="round" stroke-linejoin="round">
        <g id="SubSub-Patient-V5" transform="translate(-30.000000, -238.000000)" stroke="#FFFFFF">
            <g id="primary" transform="translate(31.000000, 239.000000)">
                <path d="M3,0.5 C3,0.776 2.776,1 2.5,1 C2.224,1 2,0.776 2,0.5 C2,0.224 2.224,0 2.5,0 C2.776,0 3,0.224 3,0.5 L3,0.5 Z" id="Stroke-157"></path>
                <path d="M2.5,0.5 C1.75,0.5 0,1.375 0,5 C0,8.625 0.437,12 5,12" id="Stroke-159"></path>
                <path d="M7,0.5 C7,0.776 7.224,1 7.5,1 C7.776,1 8,0.776 8,0.5 C8,0.224 7.776,0 7.5,0 C7.224,0 7,0.224 7,0.5 L7,0.5 Z" id="Stroke-161"></path>
                <path d="M7.5,0.5 C8.25,0.5 10,1.375 10,5 C10,8.625 9.563,12 5,12 L5,19 C5,21.209 6.791,23 9,23 L12,23 C14.209,23 16,21.209 16,19 L16,18" id="Stroke-163"></path>
                <path d="M13,15 C13,13.343 14.343,12 16,12 C17.657,12 19,13.343 19,15 C19,16.657 17.657,18 16,18 C14.343,18 13,16.657 13,15 L13,15 Z" id="Stroke-165"></path>
                <path d="M17,15 C17,15.552 16.552,16 16,16 C15.448,16 15,15.552 15,15 C15,14.448 15.448,14 16,14 C16.552,14 17,14.448 17,15 L17,15 Z" id="Stroke-167"></path>
            </g>
        </g>
    </g>
</svg>