<?xml version="1.0" encoding="UTF-8"?>
<svg width="24px" height="24px" viewBox="0 0 24 24" version="1.1" xmlns="http://www.w3.org/2000/svg" xmlns:xlink="http://www.w3.org/1999/xlink">
    <!-- Generator: Sketch 41.1 (35376) - http://www.bohemiancoding.com/sketch -->
    <title>ritprijs</title>
    <desc>Created with Sketch.</desc>
    <defs></defs>
    <g id="Symbols" stroke="none" stroke-width="1" fill="none" fill-rule="evenodd">
        <g id="SubSub-Rit-V5" transform="translate(-28.000000, -399.000000)" fill="#FFFFFF">
            <g id="ritprijs" transform="translate(28.000000, 399.000000)">
                <path d="M10.43825,16.323 C9.78925,16.323 9.08225,16.032 8.52325,15.474 C7.58125,14.53 7.38825,13.205 8.07525,12.392 C8.25225,12.18 8.56725,12.152 8.77925,12.332 C8.99125,12.51 9.01725,12.825 8.83925,13.036 C8.50125,13.437 8.67725,14.213 9.23025,14.767 C9.80725,15.342 10.61725,15.504 11.00025,15.122 C11.34425,14.777 11.23125,14.22 10.64625,13.368 L10.58325,13.275 C9.64625,11.919 9.56525,10.899 10.29225,10.171 C11.07325,9.392 12.50125,9.552 13.47625,10.526 C14.41925,11.469 14.61225,12.794 13.92525,13.608 C13.74625,13.818 13.43125,13.846 13.22025,13.668 C13.00925,13.49 12.98225,13.174 13.16025,12.963 C13.49825,12.563 13.32225,11.787 12.76925,11.233 C12.19425,10.659 11.38425,10.495 11.00025,10.878 C10.65425,11.224 10.76725,11.783 11.35625,12.636 C11.35825,12.639 11.41625,12.723 11.41825,12.726 C12.35325,14.084 12.43225,15.103 11.70725,15.829 C11.37425,16.162 10.92225,16.323 10.43825,16.323" id="Fill-1997"></path>
                <path d="M8.50025,16 C8.37225,16 8.24425,15.951 8.14625,15.854 C7.95125,15.658 7.95125,15.342 8.14625,15.146 L13.14625,10.146 C13.34125,9.951 13.65825,9.951 13.85325,10.146 C14.04825,10.342 14.04825,10.658 13.85325,10.854 L8.85325,15.854 C8.75525,15.951 8.62725,16 8.50025,16" id="Fill-1998"></path>
                <path d="M1.20725,14.5 L9.50025,22.793 L23.00025,9.293 L23.00025,1 L14.70725,1 L1.20725,14.5 L1.20725,14.5 Z M9.50025,24 C9.37225,24 9.24425,23.951 9.14625,23.854 L0.14625,14.854 C-0.04875,14.658 -0.04875,14.342 0.14625,14.146 L14.14625,0.146 C14.24025,0.053 14.36725,0 14.50025,0 L23.50025,0 C23.77625,0 24.00025,0.224 24.00025,0.5 L24.00025,9.5 C24.00025,9.633 23.94725,9.76 23.85425,9.854 L9.85425,23.854 C9.75625,23.951 9.62825,24 9.50025,24 L9.50025,24 Z" id="Fill-1999"></path>
                <path d="M18.50025,4 C17.67325,4 17.00025,4.673 17.00025,5.5 C17.00025,6.327 17.67325,7 18.50025,7 C19.32725,7 20.00025,6.327 20.00025,5.5 C20.00025,4.673 19.32725,4 18.50025,4 L18.50025,4 Z M18.50025,8 C17.12225,8 16.00025,6.878 16.00025,5.5 C16.00025,4.122 17.12225,3 18.50025,3 C19.87825,3 21.00025,4.122 21.00025,5.5 C21.00025,6.878 19.87825,8 18.50025,8 L18.50025,8 Z" id="Fill-2000"></path>
            </g>
        </g>
    </g>
</svg>