<?xml version="1.0" encoding="UTF-8"?>
<svg width="17px" height="24px" viewBox="0 0 17 24" version="1.1" xmlns="http://www.w3.org/2000/svg" xmlns:xlink="http://www.w3.org/1999/xlink">
    <!-- Generator: Sketch 41.1 (35376) - http://www.bohemiancoding.com/sketch -->
    <title>secondary</title>
    <desc>Created with Sketch.</desc>
    <defs></defs>
    <g id="Symbols" stroke="none" stroke-width="1" fill="none" fill-rule="evenodd" stroke-linecap="round" stroke-linejoin="round">
        <g id="SubSub-Patient-V5" transform="translate(-32.000000, -399.000000)" stroke="#FFFFFF">
            <g id="secondary" transform="translate(33.000000, 400.000000)">
                <path d="M0.9996,13.6607474 C3.4376,13.6607474 9.9996,9.24374742 9.9996,7.66074742" id="Stroke-1"></path>
                <path d="M13.9996,10.1607474 C13.9996,10.1607474 9.9996,9.28574742 9.9996,7.66074742" id="Stroke-3"></path>
                <path d="M14.141,3.23144742 C13.539,2.93044742 12.809,3.23244742 12.596,3.87144742 L12.511,4.12744742 C11.895,3.78444742 11.186,3.56144742 10.448,3.41844742 L10.808,1.61844742 C10.917,1.07144742 10.602,0.528447417 10.073,0.351447417 L9.189,0.0574474174 C8.558,-0.153552583 7.884,0.237447417 7.754,0.890447417 L7.299,3.16244742 C7.199,3.16144742 7.096,3.16044742 7,3.16044742 C6.219,3.16044742 5.348,3.20844742 4.491,3.38944742 L3.446,0.777447417 C3.206,0.176447417 2.503,-0.0905525826 1.924,0.198447417 L1.911,0.205447417 C1.396,0.462447417 1.164,1.07144742 1.378,1.60644742 L2.414,4.19744742 C1.027,5.08344742 0,6.70744742 0,9.66044742 C0,15.5774474 5.708,21.6604474 8,21.6604474 C11.291,21.6604474 14.5,11.9524474 14.5,7.66044742 C14.5,7.02944742 14.39,6.49644742 14.21,6.02944742 L14.696,4.57144742 C14.87,4.04844742 14.634,3.47744742 14.141,3.23144742 L14.141,3.23144742 Z" id="Stroke-5"></path>
            </g>
        </g>
    </g>
</svg>