<?xml version="1.0" encoding="UTF-8"?>
<svg width="24px" height="24px" viewBox="0 0 24 24" version="1.1" xmlns="http://www.w3.org/2000/svg" xmlns:xlink="http://www.w3.org/1999/xlink">
    <!-- Generator: Sketch 41.1 (35376) - http://www.bohemiancoding.com/sketch -->
    <title>Fill 1763</title>
    <desc>Created with Sketch.</desc>
    <defs></defs>
    <g id="Symbols" stroke="none" stroke-width="1" fill="none" fill-rule="evenodd">
        <g id="Hoofdmenu-Financieel" transform="translate(-1249.000000, -18.000000)" fill="#B8C0C8">
            <path d="M1260.68651,26 C1258.48065,26 1256.68677,27.79 1256.68677,30 C1256.68677,32.2 1258.48065,34 1260.68651,34 C1262.89237,34 1264.68625,32.2 1264.68625,30 C1264.68625,27.79 1262.89237,26 1260.68651,26 L1260.68651,26 Z M1260.68651,35 C1257.92969,35 1255.68684,32.75 1255.68684,30 C1255.68684,27.24 1257.92969,25 1260.68651,25 C1263.44333,25 1265.68619,27.24 1265.68619,30 C1265.68619,32.75 1263.44333,35 1260.68651,35 L1260.68651,35 Z M1255.44285,36.34 C1255.55085,36.34 1255.65884,36.37 1255.74783,36.44 C1256.32179,36.88 1256.93675,37.24 1257.57571,37.5 C1257.7397,37.57 1257.8557,37.72 1257.88069,37.89 L1258.31866,40.94 L1262.98636,41 L1263.49233,37.89 C1263.51733,37.72 1263.63332,37.57 1263.79731,37.5 C1264.41427,37.25 1265.01323,36.9 1265.63019,36.44 C1265.77018,36.33 1265.95317,36.31 1266.11716,36.37 L1268.97997,37.52 L1271.36282,33.51 C1271.37682,33.48 1271.37382,33.43 1271.34682,33.41 L1268.92297,31.52 C1268.78498,31.41 1268.71299,31.23 1268.73499,31.06 C1268.76998,30.78 1268.81098,30.4 1268.81098,30 C1268.81098,29.59 1268.76998,29.21 1268.73499,28.93 C1268.71299,28.76 1268.78498,28.58 1268.92297,28.47 L1271.34882,26.58 C1271.37382,26.56 1271.37682,26.51 1271.35582,26.47 L1269.06197,22.51 L1266.11716,23.62 C1265.95217,23.68 1265.76618,23.66 1265.62519,23.55 C1265.05123,23.11 1264.43627,22.75 1263.79731,22.49 C1263.63332,22.42 1263.51733,22.27 1263.49233,22.1 L1263.05436,19.05 L1258.38666,19 L1257.88069,22.1 C1257.8557,22.27 1257.7397,22.42 1257.57571,22.49 C1256.96075,22.74 1256.36179,23.09 1255.74283,23.55 C1255.60384,23.66 1255.41985,23.68 1255.25586,23.62 L1252.39305,22.47 L1250.01021,26.49 L1252.45005,28.47 C1252.58804,28.58 1252.66003,28.76 1252.63803,28.93 C1252.58604,29.35 1252.56204,29.69 1252.56204,30 C1252.56204,30.3 1252.58604,30.64 1252.63803,31.06 C1252.66003,31.23 1252.58804,31.41 1252.45005,31.52 L1250.0242,33.41 C1250.00021,33.43 1249.99621,33.48 1250.01721,33.52 L1252.31106,37.48 L1255.25586,36.37 C1255.31686,36.35 1255.37986,36.34 1255.44285,36.34 L1255.44285,36.34 Z M1262.98636,42 L1258.38666,42 C1257.8477,42 1257.39173,41.6 1257.32773,41.07 L1256.93076,38.31 C1256.38879,38.07 1255.86582,37.76 1255.36886,37.41 L1252.76603,38.45 C1252.25006,38.64 1251.6891,38.43 1251.43911,37.97 L1249.14526,34.01 C1248.88328,33.53 1248.99727,32.95 1249.40724,32.63 L1251.6141,30.9 C1251.5791,30.57 1251.5621,30.27 1251.5621,30 C1251.5621,29.72 1251.5791,29.43 1251.6141,29.09 L1249.40924,27.36 C1248.98827,27.03 1248.87628,26.44 1249.14726,25.98 L1251.44611,22.01 C1251.6941,21.55 1252.26106,21.34 1252.76203,21.54 L1255.37186,22.59 C1255.89182,22.21 1256.40679,21.91 1256.93076,21.68 L1257.32873,18.91 C1257.39273,18.39 1257.8477,18 1258.38666,18 L1262.98636,18 C1263.52533,18 1263.9803,18.39 1264.04529,18.92 L1264.44227,21.68 C1264.98423,21.92 1265.5072,22.23 1266.00416,22.58 L1268.607,21.54 C1269.12196,21.35 1269.68493,21.56 1269.93391,22.02 L1272.22776,25.98 C1272.48974,26.46 1272.37575,27.04 1271.96578,27.36 L1269.75992,29.09 C1269.78792,29.35 1269.81092,29.66 1269.81092,30 C1269.81092,30.33 1269.78792,30.64 1269.75992,30.9 L1271.96378,32.63 C1272.37575,32.95 1272.48974,33.53 1272.23476,33.99 L1269.92691,37.99 C1269.67993,38.44 1269.11396,38.65 1268.611,38.45 L1266.00117,37.41 C1265.4822,37.78 1264.96723,38.07 1264.44227,38.31 L1264.04429,41.08 C1263.9813,41.6 1263.52533,42 1262.98636,42 L1262.98636,42 Z" id="Fill-1763"></path>
        </g>
    </g>
</svg>