<?xml version="1.0" encoding="utf-8"?>
<!-- Generator: Adobe Illustrator 15.0.0, SVG Export Plug-In . SVG Version: 6.00 Build 0)  -->
<!DOCTYPE svg PUBLIC "-//W3C//DTD SVG 1.1//EN" "http://www.w3.org/Graphics/SVG/1.1/DTD/svg11.dtd">
<svg version="1.1" id="Layer_1" xmlns="http://www.w3.org/2000/svg" xmlns:xlink="http://www.w3.org/1999/xlink" x="0px" y="0px"
	 width="114.537px" height="114.537px" viewBox="0 0 114.537 114.537" enable-background="new 0 0 114.537 114.537"
	 xml:space="preserve">
<g>
	<g>
		<path fill-rule="evenodd" clip-rule="evenodd" fill="#9A9D9E" d="M57.269,29.696c-3.512,0-6.361,2.847-6.361,6.361v21.475
			c0,3.515,2.85,6.365,6.361,6.365c3.516,0,6.361-2.851,6.361-6.365V36.058C63.63,32.543,60.784,29.696,57.269,29.696z M57.269,0
			C25.641,0,0,25.641,0,57.269s25.641,57.269,57.269,57.269s57.269-25.641,57.269-57.269S88.896,0,57.269,0z M57.269,101.81
			c-24.598,0-44.541-19.943-44.541-44.541c0-24.601,19.943-44.543,44.541-44.543c24.602,0,44.541,19.942,44.541,44.543
			C101.81,81.866,81.87,101.81,57.269,101.81z M57.269,72.115c-3.512,0-6.361,2.849-6.361,6.364c0,3.513,2.85,6.361,6.361,6.361
			c3.516,0,6.361-2.849,6.361-6.361C63.63,74.964,60.784,72.115,57.269,72.115z"/>
	</g>
</g>
</svg>
