<?xml version="1.0" encoding="UTF-8"?>
<svg width="24px" height="24px" viewBox="0 0 24 24" version="1.1" xmlns="http://www.w3.org/2000/svg" xmlns:xlink="http://www.w3.org/1999/xlink">
    <!-- Generator: Sketch 41.1 (35376) - http://www.bohemiancoding.com/sketch -->
    <title>status</title>
    <desc>Created with Sketch.</desc>
    <defs></defs>
    <g id="Symbols" stroke="none" stroke-width="1" fill="none" fill-rule="evenodd" stroke-linecap="round" stroke-linejoin="round">
        <g id="SubSub-Rit-V5" transform="translate(-28.000000, -319.000000)" stroke="#FFFFFF">
            <g id="status" transform="translate(29.000000, 320.000000)">
                <path d="M22,11 C22,17.075 17.075,22 11,22 C4.925,22 0,17.075 0,11 C0,4.925 4.925,0 11,0 C17.075,0 22,4.925 22,11 L22,11 Z" id="Stroke-434"></path>
                <path d="M11,0 L11,2" id="Stroke-436"></path>
                <path d="M5.5,1.4737 L6.5,3.2057" id="Stroke-438"></path>
                <path d="M1.4737,5.5 L3.2057,6.5" id="Stroke-440"></path>
                <path d="M0,11 L2,11" id="Stroke-442"></path>
                <path d="M22,11 L20,11" id="Stroke-444"></path>
                <path d="M20.5263,5.5 L18.7943,6.5" id="Stroke-446"></path>
                <path d="M16.5,1.4737 L15.5,3.2057" id="Stroke-448"></path>
                <path d="M0.5,14 L8,14" id="Stroke-450"></path>
                <path d="M8,14 C8,12.343 9.343,11 11,11 C12.657,11 14,12.343 14,14 L21.5,14" id="Stroke-452"></path>
                <path id="Stroke-454"></path>
                <path d="M12,11 L14,5.5" id="Stroke-456"></path>
            </g>
        </g>
    </g>
</svg>