<?xml version="1.0" encoding="utf-8"?>
<!-- Generator: Adobe Illustrator 15.0.0, SVG Export Plug-In . SVG Version: 6.00 Build 0)  -->
<!DOCTYPE svg PUBLIC "-//W3C//DTD SVG 1.1//EN" "http://www.w3.org/Graphics/SVG/1.1/DTD/svg11.dtd">
<svg version="1.1" id="Layer_1" xmlns="http://www.w3.org/2000/svg" xmlns:xlink="http://www.w3.org/1999/xlink" x="0px" y="0px"
	 width="116.328px" height="103.608px" viewBox="0 0 116.328 103.608" enable-background="new 0 0 116.328 103.608"
	 xml:space="preserve">
<g>
	<g>
		<path fill-rule="evenodd" clip-rule="evenodd" fill="#999C9E" d="M101.676,52.984L49.833,1.144L48.767,0.1c0,0-26.583,0-37.627,0
			S0,11.24,0,11.24v36.027l53.697,53.697c3.369,3.367,8.784,3.413,12.097,0.102l35.982-35.984
			C105.088,61.768,105.043,56.354,101.676,52.984z M21.473,30.97c-4.684,0-8.481-3.797-8.481-8.481c0-4.684,3.798-8.482,8.481-8.482
			c4.684,0,8.481,3.798,8.481,8.482C29.954,27.173,26.157,30.97,21.473,30.97z M113.771,53.086L60.684,0l-6.237,0.024l53.275,53.012
			c3.369,3.369,3.415,8.784,0.101,12.097l-35.982,35.982c-0.88,0.88-1.911,1.505-3.009,1.911c3.059,1.178,6.622,0.574,9.057-1.859
			l35.982-35.984C117.186,61.872,117.14,56.455,113.771,53.086z"/>
	</g>
</g>
</svg>
