<?xml version="1.0" encoding="UTF-8"?>
<svg width="30px" height="22px" viewBox="0 0 30 22" version="1.1" xmlns="http://www.w3.org/2000/svg" xmlns:xlink="http://www.w3.org/1999/xlink">
    <!-- Generator: Sketch 41.1 (35376) - http://www.bohemiancoding.com/sketch -->
    <title>Combined Shape</title>
    <desc>Created with Sketch.</desc>
    <defs></defs>
    <g id="Symbols" stroke="none" stroke-width="1" fill="none" fill-rule="evenodd">
        <g id="Hoofdmenu-Financieel" transform="translate(-1202.000000, -20.000000)" fill="#B8C0C8">
            <path d="M1226.0269,42.002 L1226.0269,41 L1230.41064,41 C1230.20665,39.297 1228.97195,37.873 1227.26945,37.448 L1223.50257,36.507 C1223.32703,36.463 1223.18875,36.324 1223.14462,36.146 L1222.71409,34.43 C1222.668,34.247 1222.72684,34.054 1222.86512,33.93 C1223.82718,33.069 1224.4617,31.789 1224.56369,30.504 C1224.58331,30.244 1224.79612,30.044 1225.05208,30.044 C1225.31099,30.044 1225.49144,29.888 1225.51693,29.681 L1225.74544,27.855 C1225.76407,27.701 1225.69444,27.593 1225.65129,27.542 C1225.57185,27.449 1225.45515,27.395 1225.3306,27.394 C1225.19624,27.392 1225.06973,27.335 1224.97853,27.236 C1224.88732,27.138 1224.83927,27.005 1224.84613,26.869 L1224.95695,24.584 C1224.96284,24.458 1225.0158,24.339 1225.10406,24.251 L1225.56008,23.795 C1225.85037,23.486 1226.08084,23.038 1225.49536,22.148 C1224.99618,21.386 1224.09786,21 1222.82393,21 C1221.89618,21 1220.81153,21.097 1219.79846,21.815 C1219.57682,21.973 1219.26986,21.916 1219.11687,21.69 C1218.96192,21.463 1219.01782,21.151 1219.23946,20.994 C1220.64088,20 1222.17078,20 1222.82393,20 C1224.44601,20 1225.61893,20.535 1226.3113,21.591 C1227.22139,22.98 1226.784,23.939 1226.25638,24.499 L1225.92589,24.828 L1225.84547,26.494 C1226.05338,26.577 1226.24167,26.711 1226.39074,26.886 C1226.64866,27.188 1226.76831,27.587 1226.71829,27.981 L1226.49077,29.808 C1226.4182,30.375 1226.01611,30.83 1225.49438,30.986 C1225.29922,32.283 1224.66372,33.545 1223.73598,34.47 L1224.02136,35.607 L1227.50285,36.478 C1229.80947,37.053 1231.42076,39.117 1231.42076,41.498 C1231.42076,41.774 1231.20108,41.998 1230.93041,41.998 L1226.0269,42.002 Z M1202.49035,42.0001 C1202.35992,42.0001 1202.23537,41.9471 1202.14318,41.8531 C1202.051,41.7601 1202,41.6331 1202,41.5001 C1202,39.1181 1203.61031,37.0531 1205.9179,36.4771 L1209.40038,35.6071 L1209.58279,34.8761 C1207.1732,34.4681 1205.95125,33.7461 1205.89633,33.7131 C1205.75511,33.6281 1205.6639,33.4761 1205.65606,33.3081 C1205.64723,33.1401 1205.72274,32.9781 1205.85514,32.8791 C1205.86593,32.8701 1207.48408,31.5301 1207.48408,26.8921 C1207.48408,21.7351 1211.27254,20.0001 1213.00151,20.0001 C1214.3284,20.0001 1214.8266,20.2801 1215.48367,20.9131 L1215.74257,20.9131 C1217.58335,20.9131 1218.51796,22.9251 1218.51796,26.8921 C1218.51796,31.5301 1220.13514,32.8701 1220.15181,32.8841 C1220.2793,32.9851 1220.35285,33.1481 1220.34206,33.3141 C1220.3303,33.4791 1220.24203,33.6321 1220.10179,33.7151 C1220.04589,33.7471 1218.81119,34.4651 1216.41828,34.8731 L1216.60167,35.6071 L1220.08316,36.4771 C1222.39075,37.0531 1224.00106,39.1171 1224.00106,41.4981 C1224.00106,41.7741 1223.78237,41.9981 1223.51071,41.9981 L1202.49035,42.0001 Z M1203.01012,40.9981 L1222.99094,41.0001 C1222.78695,39.2971 1221.55225,37.8731 1219.84975,37.4481 L1216.08288,36.5071 C1215.90733,36.4631 1215.77003,36.3241 1215.72492,36.1451 L1215.33362,34.5861 C1215.2993,34.4471 1215.32479,34.3011 1215.40227,34.1831 C1215.48073,34.0641 1215.60429,33.9861 1215.74257,33.9671 C1217.32445,33.7461 1218.43264,33.3691 1219.04558,33.1141 C1218.44245,32.2871 1217.53726,30.4511 1217.53726,26.8921 C1217.53726,25.0321 1217.30385,21.9131 1215.74257,21.9131 L1215.28557,21.9131 C1215.15709,21.9131 1215.03353,21.8611 1214.94134,21.7691 C1214.35684,21.1851 1214.11853,21.0001 1213.00151,21.0001 C1212.10123,21.0001 1208.46479,22.0491 1208.46479,26.8921 C1208.46479,30.4541 1207.55666,32.2911 1206.95352,33.1171 C1207.5645,33.3711 1208.66779,33.7481 1210.25849,33.9691 C1210.39677,33.9871 1210.52034,34.0661 1210.59879,34.1851 C1210.67627,34.3031 1210.70177,34.4491 1210.66744,34.5881 L1210.27712,36.1451 C1210.23201,36.3241 1210.09471,36.4631 1209.91917,36.5071 L1206.15131,37.4481 C1204.44881,37.8731 1203.21411,39.2961 1203.01012,40.9981 Z" id="Combined-Shape"></path>
        </g>
    </g>
</svg>