<?xml version="1.0" encoding="UTF-8"?>
<svg width="25px" height="20px" viewBox="0 0 25 20" version="1.1" xmlns="http://www.w3.org/2000/svg" xmlns:xlink="http://www.w3.org/1999/xlink">
    <!-- Generator: Sketch 41.1 (35376) - http://www.bohemiancoding.com/sketch -->
    <title>werkdiagnose</title>
    <desc>Created with Sketch.</desc>
    <defs></defs>
    <g id="Symbols" stroke="none" stroke-width="1" fill="none" fill-rule="evenodd" stroke-linecap="round" stroke-linejoin="round">
        <g id="SubSub-Patient-V5" transform="translate(-28.000000, -563.000000)" stroke="#FFFFFF">
            <g id="werkdiagnose" transform="translate(29.000000, 564.000000)">
                <path d="M15,2.8226895 C15.889,1.0876895 19.242,0.326689498 21.315,0.0166894979 C22.205,-0.117310502 23,0.572689498 23,1.4726895 L23,2.8226895 L15,2.8226895 L15,2.8226895 Z" id="Stroke-285"></path>
                <path d="M4,9.8226895 L19,15.8226895" id="Stroke-287"></path>
                <path d="M19,9.8226895 L4,15.8226895" id="Stroke-289"></path>
                <path d="M4,16.3226895 C4,17.1506895 3.328,17.8226895 2.5,17.8226895 C1.672,17.8226895 1,17.1506895 1,16.3226895 C1,15.4946895 1.672,14.8226895 2.5,14.8226895 C3.328,14.8226895 4,15.4946895 4,16.3226895 L4,16.3226895 Z" id="Stroke-291"></path>
                <path d="M19,16.3226895 C19,17.1506895 19.672,17.8226895 20.5,17.8226895 C21.328,17.8226895 22,17.1506895 22,16.3226895 C22,15.4946895 21.328,14.8226895 20.5,14.8226895 C19.672,14.8226895 19,15.4946895 19,16.3226895 L19,16.3226895 Z" id="Stroke-293"></path>
                <polygon id="Stroke-284" points="0 7.8226895 23 7.8226895 23 4.8226895 0 4.8226895"></polygon>
            </g>
        </g>
    </g>
</svg>