<?xml version="1.0" encoding="utf-8"?>
<!-- Generator: Adobe Illustrator 20.0.0, SVG Export Plug-In . SVG Version: 6.00 Build 0)  -->
<svg version="1.1" id="Laag_1" xmlns="http://www.w3.org/2000/svg" xmlns:xlink="http://www.w3.org/1999/xlink" x="0px" y="0px"
	 viewBox="0 0 198.2 30.2" style="enable-background:new 0 0 198.2 30.2;" xml:space="preserve">
<style type="text/css">
	.st0{fill:#DC1E5E;}
	.st1{opacity:0.5;fill:#9D9D9C;enable-background:new    ;}
</style>
<title>Asset 2</title>
<g id="Layer_2">
	<g id="Laag_1_1_">
		<polygon class="st0" points="30.3,11.1 26.2,4 19.2,8 19.2,0 11,0 11,8 4.1,4 0,11.1 6.9,15.1 0,19.1 4.1,26.2 11,22.2 11,30.2 
			19.2,30.2 19.2,22.2 26.2,26.2 30.3,19.1 23.4,15.1 		"/>
		<path class="st0" d="M48.5,19.8l-1.4,5h-4.6l6-19.6h5.8l6.1,19.6h-4.8l-1.5-5H48.5z M53.5,16.5l-1.2-4.2c-0.3-1.2-0.7-2.6-1-3.8
			h-0.1c-0.3,1.2-0.6,2.7-0.9,3.8l-1.2,4.2H53.5z"/>
		<path class="st0" d="M79.6,17.4c-0.1-2.4-0.2-5.2-0.2-8.1h-0.1c-0.6,2.5-1.4,5.3-2.2,7.6l-2.4,7.6h-3.5l-2.1-7.6
			c-0.6-2.3-1.3-5.1-1.8-7.6h-0.1c-0.1,2.6-0.2,5.7-0.3,8.1l-0.3,7.5h-4.1l1.2-19.6h5.9l1.9,6.5c0.6,2.3,1.2,4.7,1.7,7h0.1
			c0.6-2.3,1.2-4.9,1.9-7l2.1-6.5h5.8l1.1,19.6h-4.3L79.6,17.4z"/>
		<path class="st0" d="M87.6,5.5c1.9-0.3,3.8-0.4,5.7-0.4c2.7,0,4.4,0.3,5.8,1.1c1.5,0.7,2.4,2.2,2.4,3.8c0,2-1.3,3.7-3.2,4.2v0.1
			c2.3,0.5,3.9,2.5,3.9,4.8c0,1.6-0.7,3.2-2,4.2c-1.4,1.1-3.8,1.8-7.7,1.8c-1.6,0-3.2-0.1-4.8-0.3L87.6,5.5z M92,13h1.4
			c2.3,0,3.6-1,3.6-2.4s-1.1-2.3-3.1-2.3c-0.6,0-1.3,0-1.9,0.1V13z M92,21.7c0.6,0.1,1.1,0.1,1.7,0.1c2,0,3.8-0.8,3.8-2.8
			s-1.8-2.8-4-2.8H92V21.7z"/>
		<path class="st0" d="M109.6,5.3v11.3c0,3.4,1.3,5.1,3.6,5.1s3.6-1.6,3.6-5.1V5.3h4.4v11c0,6-3.1,8.9-8.2,8.9c-4.9,0-7.8-2.7-7.8-9
			V5.3H109.6z"/>
		<path class="st1" d="M125,5.3h12v3.6h-7.5v4.5h7V17h-7v7.9H125V5.3z"/>
		<path class="st1" d="M140.3,5.3h4.4v15.9h7.8v3.7h-12.2V5.3z"/>
		<path class="st1" d="M172,14.9c0,6.4-3.9,10.3-9.6,10.3s-9.2-4.4-9.2-10c0-5.9,3.8-10.3,9.5-10.3C168.7,4.9,172,9.4,172,14.9z
			 M157.8,15.1c0,3.8,1.8,6.5,4.8,6.5s4.7-2.9,4.7-6.7c0-3.5-1.7-6.5-4.7-6.5S157.8,11.3,157.8,15.1L157.8,15.1z"/>
		<path class="st1" d="M177.9,24.9l-4.6-19.6h4.8l1.5,8.1c0.4,2.3,0.8,4.9,1.2,6.8h0.1c0.3-2.1,0.8-4.5,1.3-6.9l1.7-8h4.7l1.6,8.3
			c0.4,2.3,0.8,4.4,1,6.6h0.1c0.3-2.2,0.7-4.5,1.1-6.8l1.6-8h4.5l-5.1,19.6h-4.8l-1.7-8.4c-0.4-2-0.7-3.8-0.9-6h-0.1
			c-0.4,2.2-0.7,4.1-1.1,6l-1.9,8.4L177.9,24.9z"/>
	</g>
</g>
</svg>
