<svg xmlns="http://www.w3.org/2000/svg" viewBox="0 0 198.24 30.24"><defs><style>.cls-1{fill:#f39200;}.cls-2{fill:#9d9d9c;opacity:0.5;}</style></defs><title>Asset 2</title><g id="Layer_2" data-name="Layer 2"><g id="Laag_1" data-name="Laag 1"><polygon class="cls-1" points="30.29 11.11 26.18 4 19.25 8.01 19.25 0 11.04 0 11.04 8.01 4.1 4 0 11.11 6.94 15.12 0 19.12 4.1 26.23 11.04 22.23 11.04 30.24 19.25 30.24 19.25 22.23 26.18 26.23 30.29 19.12 23.35 15.12 30.29 11.11"/><path class="cls-1" d="M48.48,19.83l-1.4,5h-4.6l6-19.6H54.3l6.08,19.6H55.61l-1.51-5Zm5-3.32-1.22-4.16c-.35-1.16-.7-2.62-1-3.78h-.06c-.29,1.16-.58,2.65-.9,3.78l-1.16,4.16Z"/><path class="cls-1" d="M79.57,17.36c-.09-2.36-.17-5.21-.17-8.06h-.09c-.61,2.5-1.42,5.29-2.18,7.59l-2.38,7.65H71.28l-2.09-7.59c-.64-2.3-1.31-5.09-1.77-7.65h-.06c-.12,2.65-.2,5.67-.35,8.11l-.35,7.45h-4.1l1.25-19.6h5.9l1.92,6.54c.61,2.27,1.22,4.71,1.66,7h.09c.55-2.27,1.22-4.86,1.86-7l2.09-6.51h5.79l1.08,19.6H79.86Z"/><path class="cls-1" d="M87.59,5.52a35.28,35.28,0,0,1,5.73-.41c2.71,0,4.36.26,5.79,1.1a4.27,4.27,0,0,1,2.36,3.84,4.43,4.43,0,0,1-3.23,4.19v.06a4.9,4.9,0,0,1,3.9,4.83,5.22,5.22,0,0,1-2,4.16c-1.43,1.13-3.81,1.77-7.71,1.77a34.26,34.26,0,0,1-4.8-.29ZM92,13h1.45c2.33,0,3.58-1,3.58-2.41s-1.13-2.27-3.14-2.27A12.09,12.09,0,0,0,92,8.46Zm0,8.7a14,14,0,0,0,1.72.06c2,0,3.78-.76,3.78-2.82s-1.77-2.76-4-2.76H92Z"/><path class="cls-1" d="M109.57,5.26V16.54c0,3.37,1.28,5.09,3.55,5.09s3.61-1.63,3.61-5.09V5.26h4.42v11c0,6-3.05,8.93-8.17,8.93-4.94,0-7.85-2.73-7.85-9V5.26Z"/><path class="cls-2" d="M125,5.26h12V8.89h-7.53v4.48h7V17h-7v7.88H125Z"/><path class="cls-2" d="M140.31,5.26h4.45V21.14h7.79v3.72H140.31Z"/><path class="cls-2" d="M172,14.85c0,6.43-3.9,10.32-9.63,10.32s-9.22-4.39-9.22-10c0-5.87,3.75-10.27,9.54-10.27C168.72,4.94,172,9.44,172,14.85Zm-14.16.26c0,3.84,1.8,6.54,4.77,6.54s4.71-2.85,4.71-6.66c0-3.52-1.69-6.54-4.74-6.54S157.84,11.31,157.84,15.12Z"/><path class="cls-2" d="M177.88,24.86l-4.65-19.6H178l1.48,8.08c.44,2.33.84,4.86,1.16,6.83h.06c.32-2.12.79-4.48,1.28-6.89l1.66-8h4.71l1.57,8.26c.44,2.3.76,4.39,1,6.57H191c.29-2.18.73-4.48,1.13-6.81l1.6-8h4.51l-5.06,19.6h-4.8l-1.66-8.43c-.38-2-.7-3.81-.93-6h-.06c-.35,2.21-.67,4.07-1.13,6l-1.86,8.43Z"/></g></g></svg>